<?xml version="1.0" encoding="iso-8859-1"?>
<!-- Generator: Adobe Illustrator 19.0.0, SVG Export Plug-In . SVG Version: 6.00 Build 0)  -->
<svg version="1.1" id="Capa_1" xmlns="http://www.w3.org/2000/svg" xmlns:xlink="http://www.w3.org/1999/xlink" x="0px" y="0px"
	 viewBox="0 0 512 512" style="enable-background:new 0 0 512 512;" xml:space="preserve">
<g>
	<g transform="translate(12 1)">
		<path style="fill:#A4C2F7;" d="M397.6,161.133v187.733c0,84.831-68.769,153.6-153.6,153.6c-4.352,0-8.619-0.171-12.8-0.512
			c-79.59-6.676-140.791-73.219-140.8-153.088V161.133C90.422,81.427,151.368,14.961,230.773,8.045h0.427
			c4.181-0.341,8.448-0.512,12.8-0.512c40.742-0.016,79.82,16.162,108.629,44.971S397.616,120.391,397.6,161.133z"/>
		<path style="fill:#E3E7F2;" d="M372,161.133v187.733c-0.009,79.869-61.21,146.412-140.8,153.088
			c-79.59-6.676-140.791-73.219-140.8-153.088V161.133C90.422,81.427,151.368,14.961,230.773,8.045h0.427
			C310.799,14.702,372.012,81.256,372,161.133z"/>
		<path style="fill:#A4C2F7;" d="M397.6,161.133V203.8h-59.733c-0.033,51.827-42.039,93.834-93.867,93.867
			c-4.285,0.033-8.566-0.281-12.8-0.939c-46.445-6.371-81.058-46.048-81.067-92.928H90.4v-42.667
			C90.409,81.264,151.61,14.721,231.2,8.045c4.181-0.341,8.448-0.512,12.8-0.512c40.742-0.016,79.82,16.162,108.629,44.971
			S397.616,120.391,397.6,161.133z"/>
		<g>
			<path style="fill:#E3E7F2;" d="M372,161.133V203.8h-59.733c-0.009,46.88-34.622,86.557-81.067,92.928
				c-46.445-6.371-81.058-46.048-81.067-92.928H90.4v-42.667C90.409,81.264,151.61,14.721,231.2,8.045
				C310.799,14.702,372.012,81.256,372,161.133z"/>
			<path style="fill:#E3E7F2;" d="M303.733,391.533c0,32.99-26.743,59.733-59.733,59.733c-4.302-0.014-8.592-0.471-12.8-1.365
				c-27.454-5.973-47.035-30.271-47.035-58.368s19.581-52.395,47.035-58.368c4.208-0.894,8.498-1.351,12.8-1.365
				C276.99,331.8,303.733,358.544,303.733,391.533z"/>
		</g>
		<ellipse style="fill:#F5F5F5;" cx="231.2" cy="391.533" rx="46.933" ry="58.368"/>
		<circle style="fill:#E3E7F2;" cx="244" cy="203.8" r="59.733"/>
		<g>
			<circle style="fill:#FFFFFF;" cx="244" cy="203.8" r="25.6"/>
			<path style="fill:#FFFFFF;" d="M231.2,501.955c4.181,0.341,8.448,0.512,12.8,0.512c4.07,0,8.064-0.299,12.058-0.606
				c-79.27-7.016-140.054-73.415-140.058-152.994V161.133c0-5.023,0.239-9.99,0.717-14.899c0.145-1.545,0.461-3.038,0.657-4.565
				c0.427-3.328,0.853-6.665,1.442-9.924c0.375-1.937,0.939-3.814,1.391-5.726c0.649-2.773,1.22-5.581,2.022-8.294
				c0.597-2.048,1.391-4.011,2.074-5.973c0.853-2.5,1.613-5.035,2.56-7.475c0.853-2.091,1.86-4.079,2.782-6.118
				c1.015-2.261,1.954-4.574,3.072-6.767c0.998-1.963,2.176-3.806,3.251-5.717c1.237-2.176,2.389-4.403,3.729-6.519
				c1.109-1.758,2.389-3.413,3.567-5.12c1.476-2.133,2.884-4.318,4.463-6.374c1.195-1.562,2.56-3.004,3.806-4.523
				c1.707-2.074,3.413-4.198,5.214-6.178c1.203-1.306,2.56-2.492,3.789-3.755c2.031-2.057,4.019-4.147,6.161-6.084
				c1.143-1.033,2.398-1.946,3.567-2.944c2.381-2.031,4.745-4.087,7.245-5.973c1.033-0.768,2.15-1.434,3.2-2.185
				c2.765-1.963,5.521-3.942,8.414-5.726c0.802-0.495,1.707-0.853,2.475-1.382c3.234-1.911,6.494-3.789,9.873-5.47
				c0.521-0.256,1.084-0.452,1.613-0.708c3.729-1.801,7.509-3.507,11.401-5.009l0.538-0.171c13.06-4.975,26.742-8.134,40.661-9.387
				c-3.849-0.333-7.731-0.631-11.682-0.631c-4.352,0-8.619,0.171-12.8,0.512h-0.427c-14.149,1.219-28.059,4.407-41.327,9.472
				l-0.538,0.171c-3.891,1.502-7.68,3.209-11.401,5.009c-0.529,0.256-1.092,0.452-1.613,0.708c-3.413,1.707-6.639,3.558-9.873,5.47
				c-0.811,0.486-1.707,0.853-2.475,1.382c-2.893,1.783-5.649,3.763-8.414,5.726c-1.05,0.751-2.167,1.417-3.2,2.185
				c-2.5,1.877-4.864,3.934-7.245,5.973c-1.169,0.998-2.423,1.911-3.567,2.944c-2.142,1.937-4.13,4.028-6.161,6.084
				c-1.246,1.263-2.56,2.449-3.789,3.755c-1.826,1.98-3.49,4.105-5.214,6.178c-1.263,1.519-2.611,2.961-3.806,4.523
				c-1.579,2.057-2.987,4.267-4.463,6.374c-1.178,1.707-2.458,3.362-3.567,5.12c-1.34,2.116-2.492,4.343-3.729,6.519
				c-1.075,1.911-2.253,3.755-3.251,5.717c-1.118,2.193-2.057,4.506-3.072,6.767c-0.922,2.039-1.946,4.028-2.782,6.118
				c-0.973,2.441-1.707,4.975-2.56,7.475c-0.683,2.005-1.476,3.968-2.074,6.016c-0.802,2.714-1.374,5.521-2.022,8.294
				c-0.452,1.911-1.015,3.789-1.391,5.726c-0.631,3.26-1.015,6.596-1.442,9.924c-0.196,1.527-0.512,3.021-0.657,4.565
				c-0.495,4.904-0.742,9.867-0.742,14.891v187.733C90.409,428.736,151.61,495.279,231.2,501.955z"/>
		</g>
	</g>
	<g>
		<polygon style="fill:#FFFFFF;" points="93.867,349.867 93.867,238.933 93.867,162.133 110.933,162.133 110.933,238.933 
			110.933,349.867 		"/>
		<g>
			<path style="fill:#428DFF;" d="M99.157,289.451c0.484,0.247,1.001,0.419,1.536,0.512c0.564,0.095,1.135,0.152,1.707,0.171
				c2.259-0.033,4.422-0.917,6.059-2.475c0.771-0.816,1.38-1.772,1.792-2.816c1.287-3.183,0.586-6.825-1.792-9.301
				c-0.816-0.771-1.772-1.38-2.816-1.792c-1.026-0.437-2.128-0.669-3.243-0.683c-3.467-0.02-6.601,2.059-7.931,5.261
				c-1.329,3.202-0.59,6.89,1.872,9.331l1.28,1.024C98.097,289.006,98.613,289.264,99.157,289.451z"/>
			<path style="fill:#428DFF;" d="M256,512c89.501-0.103,162.03-72.632,162.133-162.133V162.133C418.133,72.59,345.544,0,256,0
				S93.867,72.59,93.867,162.133v85.333c0,4.713,3.821,8.533,8.533,8.533c4.713,0,8.533-3.82,8.533-8.533v-34.133h43.102
				c4.348,53.091,48.704,93.964,101.973,93.964s97.626-40.873,101.973-93.964h43.085v136.533
				c0,80.118-64.949,145.067-145.067,145.067s-145.067-64.949-145.067-145.067v-34.133c0-4.713-3.821-8.533-8.533-8.533
				c-4.713,0-8.533,3.821-8.533,8.533v34.133C93.97,439.368,166.499,511.897,256,512z M349.867,196.267
				c-4.713,0-8.533,3.821-8.533,8.533c0,47.128-38.205,85.333-85.333,85.333s-85.333-38.205-85.333-85.333
				c0-4.713-3.821-8.533-8.533-8.533h-51.2v-34.133c0-80.118,64.949-145.067,145.067-145.067s145.067,64.949,145.067,145.067v34.133
				H349.867z"/>
			<path style="fill:#428DFF;" d="M324.267,392.533c0-37.703-30.564-68.267-68.267-68.267c-37.703,0-68.267,30.564-68.267,68.267
				S218.297,460.8,256,460.8C293.685,460.758,324.224,430.218,324.267,392.533z M204.8,392.533c0-28.277,22.923-51.2,51.2-51.2
				c28.277,0,51.2,22.923,51.2,51.2s-22.923,51.2-51.2,51.2C227.735,443.705,204.828,420.799,204.8,392.533z"/>
			<path style="fill:#428DFF;" d="M256,136.533c-37.703,0-68.267,30.564-68.267,68.267s30.564,68.267,68.267,68.267
				c37.703,0,68.267-30.564,68.267-68.267C324.224,167.115,293.685,136.576,256,136.533z M256,256c-28.277,0-51.2-22.923-51.2-51.2
				s22.923-51.2,51.2-51.2c28.277,0,51.2,22.923,51.2,51.2C307.167,233.063,284.263,255.967,256,256z"/>
			<path style="fill:#428DFF;" d="M256,170.667c-18.851,0-34.133,15.282-34.133,34.133s15.282,34.133,34.133,34.133
				c18.851,0,34.133-15.282,34.133-34.133S274.851,170.667,256,170.667z M256,221.867c-9.426,0-17.067-7.641-17.067-17.067
				c0-9.426,7.641-17.067,17.067-17.067c9.426,0,17.067,7.641,17.067,17.067C273.067,214.226,265.426,221.867,256,221.867z"/>
			<path style="fill:#428DFF;" d="M290.133,392.533c0-18.851-15.282-34.133-34.133-34.133c-18.851,0-34.133,15.282-34.133,34.133
				c0,4.713,3.82,8.533,8.533,8.533s8.533-3.82,8.533-8.533c0-9.426,7.641-17.067,17.067-17.067c9.426,0,17.067,7.641,17.067,17.067
				S265.426,409.6,256,409.6c-4.713,0-8.533,3.82-8.533,8.533s3.821,8.533,8.533,8.533
				C274.851,426.667,290.133,411.385,290.133,392.533z"/>
			<path style="fill:#428DFF;" d="M68.267,349.867c4.713,0,8.533-3.821,8.533-8.533s-3.82-8.533-8.533-8.533
				c-28.263-0.033-51.167-22.937-51.2-51.2c0-4.713-3.821-8.533-8.533-8.533S0,276.887,0,281.6
				C0.042,319.285,30.582,349.824,68.267,349.867z"/>
			<path style="fill:#428DFF;" d="M68.267,298.667c-9.426,0-17.067-7.641-17.067-17.067c0-4.713-3.821-8.533-8.533-8.533
				s-8.533,3.82-8.533,8.533c0,18.851,15.282,34.133,34.133,34.133c4.713,0,8.533-3.82,8.533-8.533S72.98,298.667,68.267,298.667z"
				/>
			<path style="fill:#428DFF;" d="M8.533,162.133c4.713,0,8.533-3.821,8.533-8.533c0.028-28.265,22.935-51.172,51.2-51.2
				c4.713,0,8.533-3.821,8.533-8.533c0-4.713-3.82-8.533-8.533-8.533C30.582,85.376,0.042,115.915,0,153.6
				c0,2.263,0.899,4.434,2.499,6.034S6.27,162.133,8.533,162.133z"/>
			<path style="fill:#428DFF;" d="M68.267,119.467c-18.851,0-34.133,15.282-34.133,34.133c0,4.713,3.821,8.533,8.533,8.533
				s8.533-3.821,8.533-8.533c0-9.426,7.641-17.067,17.067-17.067c4.713,0,8.533-3.821,8.533-8.533
				C76.8,123.287,72.98,119.467,68.267,119.467z"/>
			<path style="fill:#428DFF;" d="M503.467,273.067c-4.713,0-8.533,3.82-8.533,8.533c-0.033,28.263-22.937,51.167-51.2,51.2
				c-4.713,0-8.533,3.82-8.533,8.533s3.821,8.533,8.533,8.533c37.685-0.042,68.224-30.582,68.267-68.267
				C512,276.887,508.18,273.067,503.467,273.067z"/>
			<path style="fill:#428DFF;" d="M443.733,315.733c18.851,0,34.133-15.282,34.133-34.133c0-4.713-3.821-8.533-8.533-8.533
				c-4.713,0-8.533,3.82-8.533,8.533c0,9.426-7.641,17.067-17.067,17.067c-4.713,0-8.533,3.82-8.533,8.533
				S439.021,315.733,443.733,315.733z"/>
			<path style="fill:#428DFF;" d="M443.733,85.333c-4.713,0-8.533,3.821-8.533,8.533c0,4.713,3.821,8.533,8.533,8.533
				c28.265,0.028,51.172,22.935,51.2,51.2c0,4.713,3.821,8.533,8.533,8.533c4.713,0,8.533-3.821,8.533-8.533
				C511.958,115.915,481.418,85.376,443.733,85.333z"/>
			<path style="fill:#428DFF;" d="M443.733,136.533c9.426,0,17.067,7.641,17.067,17.067c0,4.713,3.821,8.533,8.533,8.533
				c4.713,0,8.533-3.821,8.533-8.533c0-18.851-15.282-34.133-34.133-34.133c-4.713,0-8.533,3.821-8.533,8.533
				C435.2,132.713,439.021,136.533,443.733,136.533z"/>
		</g>
	</g>
</g>
<g>
</g>
<g>
</g>
<g>
</g>
<g>
</g>
<g>
</g>
<g>
</g>
<g>
</g>
<g>
</g>
<g>
</g>
<g>
</g>
<g>
</g>
<g>
</g>
<g>
</g>
<g>
</g>
<g>
</g>
</svg>
